<?xml version="1.0" encoding="UTF-8"?>
<svg xmlns="http://www.w3.org/2000/svg" viewBox="0 0 407.67 422.16">
  <defs>
    <style>
      .cls-1 {
        fill: #29b56b;
      }

      .cls-2 {
        fill: #b07219;
      }

      .cls-3 {
        fill: #010101;
      }

      .cls-4 {
        fill: #231f20;
      }

      .cls-5 {
        fill: #03a04a;
      }

      .cls-6 {
        fill: #fff;
      }
    </style>
  </defs>
  <g id="Layer_3" data-name="Layer 3">
    <g>
      <path class="cls-4" d="M11.41,406.79L11.41,398.52Q11.41,397.57 12.03,397.00Q12.65,396.43 13.50,396.43L21.21,396.43Q26.91,396.43 31.67,393.62Q36.43,390.82 39.23,386.06Q42.04,381.31 42.04,375.60Q42.04,369.89 39.23,365.14Q36.43,360.38 31.67,357.58Q26.91,354.77 21.21,354.77L13.50,354.77Q13.03,354.77 12.70,355.11Q12.36,355.44 12.36,355.91L12.36,361.72Q12.36,362.57 11.75,363.14Q11.13,363.71 10.27,363.71L2.00,363.71Q1.24,363.71 0.62,363.09Q0.00,362.48 0.00,361.72L0.00,344.50Q0.00,343.65 0.62,343.03Q1.24,342.41 2.00,342.41L21.21,342.41Q30.24,342.41 37.85,346.88Q45.46,351.35 49.93,358.96Q54.40,366.57 54.40,375.60Q54.40,384.63 49.93,392.24Q45.46,399.85 37.85,404.32Q30.24,408.79 21.21,408.79L13.50,408.79Q12.65,408.79 12.03,408.22Q11.41,407.65 11.41,406.79Z"/>
      <path class="cls-4" d="M76.06,405.67L76.06,356.19Q76.06,355.24 75.39,354.62Q74.73,354.00 73.78,354.00L68.36,354.00Q67.88,354.00 67.50,353.62Q67.12,353.24 67.12,352.67L67.12,343.83Q67.12,343.26 67.50,342.88Q67.88,342.50 68.36,342.50L109.91,342.50Q110.39,342.50 110.77,342.88Q111.15,343.26 111.15,343.83L111.15,352.67Q111.15,353.24 110.77,353.62Q110.39,354.00 109.91,354.00L92.13,354.00Q91.18,354.00 90.51,354.67Q89.85,355.33 89.85,356.19L89.85,407.52Q89.85,408.09 89.47,408.43Q89.09,408.76 88.61,408.76L79.15,408.76Q76.06,408.76 76.06,405.67Z"/>
      <path class="cls-4" d="M127.59,407.26L127.59,374.07Q127.59,373.30 128.11,372.78Q128.64,372.26 129.40,372.26L149.08,372.26Q152.88,372.26 155.50,369.69Q158.11,367.12 158.11,363.51Q158.11,359.80 155.50,357.23Q152.88,354.66 149.08,354.66L141.09,354.66Q140.05,354.66 139.33,355.38Q138.62,356.09 138.62,357.04L138.62,359.42Q138.62,360.37 137.95,361.08Q137.29,361.80 136.24,361.80L129.97,361.80Q129.02,361.80 128.30,361.08Q127.59,360.37 127.59,359.42L127.59,344.11Q127.59,343.35 128.11,342.82Q128.64,342.30 129.40,342.30L149.08,342.30Q154.97,342.30 159.92,345.15Q164.86,348.01 167.76,352.86Q170.66,357.71 170.66,363.51Q170.66,368.45 168.43,372.83Q166.19,377.20 162.30,380.15Q161.72,380.53 161.72,381.10Q161.72,381.67 161.82,382.05L172.85,406.69Q173.23,407.35 173.23,407.92Q173.23,408.97 171.90,408.97L164.10,408.97Q163.06,408.97 162.53,408.78Q162.01,408.59 161.63,407.83L151.74,385.57Q151.46,385.00 150.98,384.81Q150.51,384.62 149.08,384.62L141.00,384.62Q139.86,384.62 139.24,384.96Q138.62,385.29 138.62,386.33L138.62,407.26Q138.62,408.02 138.10,408.49Q137.57,408.97 136.81,408.97L129.40,408.97Q128.64,408.97 128.11,408.49Q127.59,408.02 127.59,407.26Z"/>
      <path class="cls-5" d="M187.41,352.28L187.41,344.10Q187.41,343.34 187.93,342.87Q188.46,342.39 189.12,342.39L233.25,342.39Q234.01,342.39 234.53,342.91Q235.05,343.44 235.05,344.10L235.05,352.28Q235.05,352.95 234.53,353.52Q234.01,354.09 233.25,354.09L189.12,354.09Q188.46,354.09 187.93,353.57Q187.41,353.04 187.41,352.28ZM187.41,407.26L187.41,363.32Q187.41,362.55 187.93,362.08Q188.46,361.60 189.12,361.60L197.21,361.60Q197.97,361.60 198.44,362.08Q198.92,362.55 198.92,363.32L198.92,368.08Q198.92,371.97 204.25,371.97L225.35,371.97Q226.02,371.97 226.50,372.40Q226.97,372.83 226.97,373.49L226.97,381.67Q226.97,382.34 226.50,382.77Q226.02,383.19 225.35,383.19L204.39,383.19Q198.92,383.19 198.92,388.19L198.92,395.56Q198.92,396.22 199.49,396.80Q200.06,397.37 200.72,397.37L233.44,397.37Q234.20,397.37 234.67,397.84Q235.15,398.32 235.15,399.08L235.15,407.26Q235.15,407.92 234.67,408.45Q234.20,408.97 233.44,408.97L189.12,408.97Q188.46,408.97 187.93,408.45Q187.41,407.92 187.41,407.26Z"/>
      <path class="cls-5" d="M298.03,366.73l-18.24,19.92,20.55,22.3h-13.98l-13.52-14.73-13.52,14.73h-14.02l20.51-22.38-18.16-19.84h13.91l11.21,12.23,11.29-12.23h13.98Z"/>
      <path class="cls-5" d="M357.98,394.7c0,1.75-.22,3.31-.66,4.71-.44,1.39-1.03,2.62-1.76,3.67-.73,1.05-1.58,1.95-2.54,2.7-.96.74-1.97,1.35-3.03,1.82s-2.12.81-3.18,1.04c-1.07.22-2.08.33-3.05.33h-18.32v-10.16h18.32c1.35,0,2.37-.35,3.05-1.05.68-.7,1.02-1.72,1.02-3.05v-13.67c0-1.41-.35-2.45-1.04-3.12-.69-.68-1.7-1.02-3.03-1.02h-18.24c-1.38,0-2.42.35-3.12,1.04-.7.69-1.05,1.7-1.05,3.03v41.21h-10.16v-41.21c0-1.74.22-3.31.66-4.69.44-1.38,1.04-2.6,1.78-3.65s1.59-1.95,2.56-2.7c.96-.74,1.97-1.35,3.03-1.82s2.12-.81,3.2-1.04c1.08-.22,2.09-.33,3.03-.33h18.32c1.74,0,3.31.22,4.69.66,1.38.44,2.6,1.03,3.65,1.76,1.05.73,1.95,1.58,2.7,2.54.74.96,1.35,1.97,1.82,3.03s.81,2.12,1.04,3.18c.22,1.07.33,2.08.33,3.05v13.75Z"/>
    </g>
  </g>
  <g id="Layer_2" data-name="Layer 2">
    <g>
      <path class="cls-1" d="M159.72,234.78c-50.72,0-91.99-41.27-91.99-91.99s41.27-91.99,91.99-91.99,91.99,41.27,91.99,91.99-41.27,91.99-91.99,91.99ZM159.72,92.58c-27.69,0-50.21,22.52-50.21,50.21s22.52,50.21,50.21,50.21,50.21-22.52,50.21-50.21-22.52-50.21-50.21-50.21Z"/>
      <path class="cls-1" d="M88.61,201.03l-10.06,22.2,15.91-15.61-5.85-6.59Z"/>
      <path class="cls-3" d="M159.72,193c-27.68,0-50.21-22.52-50.21-50.21s22.52-50.21,50.21-50.21,50.21,22.52,50.21,50.21-22.52,50.21-50.21,50.21ZM159.72,111.18c-17.43,0-31.61,14.18-31.61,31.61s14.18,31.61,31.61,31.61,31.61-14.18,31.61-31.61-14.18-31.61-31.61-31.61Z"/>
      <path class="cls-6" d="M159.72,142.79l-71.09,94.68-12.85-11.18,83.94-83.5Z"/>
      <path class="cls-3" d="M265.03,46.41C213.54-9.92,127.31-15.52,69.27,32.61h0s-.02.02-.02.02c-1.93,1.6-3.82,3.25-5.68,4.97l-8.03,7.51,63.66,68.06,13.56-12.75-50.76-54.21c43.81-35.66,106.63-37.03,152.24-2.76,54.84,41.2,65.92,119.07,24.74,173.94-37.71,50.24-106.16,63.76-159.54,34.04h.04s60.24-108.64,60.24-108.64l-74.58,99.36s-.02-.01-.02-.02l-11.15,14.87s0,0,.01.01l-.03.03h.05c54.9,41.19,131.35,37.48,182.01-8.86,58.19-53.23,62.22-143.56,9.02-201.77Z"/>
    </g>
  </g>
  <g id="Layer_4" data-name="Layer 4">
    <rect class="cls-2" x="308.28" y="235.91" width="99.39" height="99.39" rx="49.69" ry="49.69"/>
    <g>
      <path fill="#ffffff" d="M319.06615699259834 292.9887164004675Q318.975 292.83678807947024 318.975 292.6544740942735Q318.975 292.5025457732762 319.05096416049867 292.3354246201792Q319.12692832099725 292.16830346708224 319.2484709777951 292.1075321386833Q319.6738702765875 291.86444682508767 320.38793338527466 291.49981885469424Q321.10199649396185 291.13519088430075 321.5273957927542 290.92249123490456Q321.6793241137515 290.83133424230624 321.83125243474876 290.83133424230624Q322.1351090767433 290.83133424230624 322.4693513829373 291.1655765485002Q322.8643650175302 291.7125185040904 323.5784281262174 292.04676081028435Q324.29249123490456 292.3810031164784 324.991361511492 292.3810031164784Q326.17640241527073 292.3810031164784 326.95123685235683 291.5909758472926Q327.7260712894429 290.8009485781068 327.7260712894429 289.58552201012856V278.5251402415271H321.314696143358Q321.0108395013635 278.5251402415271 320.7981398519673 278.29724776003115Q320.5854402025711 278.0693552785353 320.5854402025711 277.7654986365407V275.6385021425789Q320.5854402025711 275.3346455005844 320.7981398519673 275.1067530190885Q321.0108395013635 274.8788605375926 321.314696143358 274.8788605375926H331.2811940007791Q331.5242793143748 274.8788605375926 331.67620763537207 275.03078885858986Q331.8281359563693 275.1827171795871 331.8281359563693 275.42580249318274V289.58552201012856Q331.8281359563693 292.01637514608495 330.506359563693 293.7331651733541Q329.18458317101675 295.4499552006233 327.2095149980522 296.0576684846124Q326.2067880794702 296.361525126607 324.991361511492 296.361525126607Q323.2289929879236 296.3311394624075 321.5881671211531 295.35879820802495Q319.94734125438254 294.38645695364244 319.06615699259834 292.9887164004675Z"/>
      <path fill="#ffffff" d="M336.38598558628746 295.78419750681735 341.76424814959097 275.3346455005844Q341.8250194779898 275.15233151538763 341.99214063108684 275.01559602649013Q342.15926178418385 274.8788605375926 342.37196143358005 274.8788605375926H348.6921795870666Q348.8744935722633 274.8788605375926 349.05680755746005 275.0004031943904Q349.2391215426568 275.1219458511882 349.2998928710557 275.3042598363849L354.67815543435916 295.7538118426179V295.8449688352162Q354.67815543435916 296.17921114141024 354.3742987923646 296.17921114141024H351.3965037008181Q351.21418971562133 296.17921114141024 351.0166828983249 296.0424756525127Q350.81917608102844 295.9057401636151 350.788790416829 295.72342617841844L349.2998928710557 290.07169263731987Q349.2391215426568 289.79822165952476 348.99603622906113 289.615907674328Q348.75295091546553 289.4335936891313 348.4794799376704 289.4335936891313H342.5846610829762Q342.31119010518114 289.4335936891313 342.0681047915855 289.615907674328Q341.8250194779898 289.79822165952476 341.76424814959097 290.07169263731987L340.2753506038177 295.693040514219Q340.2449649396182 295.9057401636151 340.04745812232176 296.0424756525127Q339.8499513050253 296.17921114141024 339.6676373198286 296.17921114141024H336.68984222828203Q336.53791390728475 296.17921114141024 336.4467569146864 296.0576684846124Q336.355599922088 295.9361258278146 336.38598558628746 295.78419750681735ZM347.5375243474873 286.18232761978965Q347.8413809894819 286.18232761978965 348.0085021425789 285.9696279703935Q348.17562329567585 285.7569283209973 348.11485196727693 285.4834573432022L346.4132547721075 279.22401051811454Q346.38286910790805 278.98092520451894 346.1397837943124 278.7986112193222Q345.8966984807168 278.61629723412545 345.6232275029217 278.61629723412545H345.44091351772494Q345.1674425399299 278.61629723412545 344.9243572263342 278.7986112193222Q344.68127191273857 278.98092520451894 344.6508862485391 279.22401051811454L342.97967471756914 285.4834573432022L342.9492890533697 285.6353856641995Q342.9492890533697 285.87847097779513 343.1012173743669 286.0303992987924Q343.2531456953642 286.18232761978965 343.5266166731593 286.18232761978965Z"/>
      <path fill="#ffffff" d="M374.79346513439816 275.27387417218546Q374.79346513439816 275.42580249318274 374.7630794701987 275.5169594857811L369.23288858589797 295.7538118426179Q369.17211725749905 295.9968971562135 369.02018893650177 296.07286131671214Q368.8682606155045 296.1488254772108 368.56440397350997 296.1488254772108H364.82696727697703Q364.5231106349825 296.1488254772108 364.3559894818855 296.07286131671214Q364.1888683287885 295.9968971562135 364.1280970003896 295.7538118426179L358.6282917802883 275.5169594857811Q358.59790611608884 275.42580249318274 358.59790611608884 275.243488507986Q358.59790611608884 274.8484748733931 358.9929197506818 274.8484748733931H361.75801519283215Q362.0922574990261 274.8484748733931 362.25937865212313 274.92443903389176Q362.42649980522015 275.00040319439034 362.487271133619 275.243488507986Q363.0645987534087 277.4008706661473 364.4015679781847 282.2929626022595Q365.7385372029607 287.1850545383717 366.43740747954814 289.85899298792367Q366.5893358005454 290.40593494351384 366.68049279314374 290.40593494351384Q366.80203544994157 290.40593494351384 366.9235781067394 289.85899298792367Q367.62244838332686 287.1850545383717 368.95941760810285 282.2929626022595Q370.29638683287885 277.4008706661473 370.8737144526685 275.243488507986Q370.96487144526685 275.00040319439034 371.13199259836387 274.92443903389176Q371.2991137514609 274.8484748733931 371.6029703934554 274.8484748733931H374.3984514998052Q374.79346513439816 274.8484748733931 374.79346513439816 275.27387417218546Z"/>
      <path fill="#ffffff" d="M378.6828301519283 295.78419750681735 384.0610927152318 275.3346455005844Q384.12186404363064 275.15233151538763 384.28898519672765 275.01559602649013Q384.45610634982467 274.8788605375926 384.66880599922087 274.8788605375926H390.98902415270743Q391.1713381379041 274.8788605375926 391.35365212310086 275.0004031943904Q391.5359661082976 275.1219458511882 391.5967374366965 275.3042598363849L396.97499999999997 295.7538118426179V295.8449688352162Q396.97499999999997 296.17921114141024 396.6711433580054 296.17921114141024H393.6933482664589Q393.51103428126214 296.17921114141024 393.31352746396567 296.0424756525127Q393.11602064666926 295.9057401636151 393.0856349824698 295.72342617841844L391.5967374366965 290.07169263731987Q391.5359661082976 289.79822165952476 391.292880794702 289.615907674328Q391.04979548110634 289.4335936891313 390.77632450331123 289.4335936891313H384.881505648617Q384.60803467082195 289.4335936891313 384.3649493572263 289.615907674328Q384.12186404363064 289.79822165952476 384.0610927152318 290.07169263731987L382.5721951694585 295.693040514219Q382.54180950525904 295.9057401636151 382.34430268796257 296.0424756525127Q382.1467958706661 296.17921114141024 381.9644818854694 296.17921114141024H378.98668679392284Q378.83475847292556 296.17921114141024 378.7436014803272 296.0576684846124Q378.6524444877288 295.9361258278146 378.6828301519283 295.78419750681735ZM389.8343689131281 286.18232761978965Q390.1382255551227 286.18232761978965 390.30534670821964 285.9696279703935Q390.47246786131666 285.7569283209973 390.41169653291774 285.4834573432022L388.7100993377483 279.22401051811454Q388.67971367354886 278.98092520451894 388.43662835995326 278.7986112193222Q388.1935430463576 278.61629723412545 387.9200720685625 278.61629723412545H387.73775808336575Q387.4642871055707 278.61629723412545 387.22120179197503 278.7986112193222Q386.9781164783794 278.98092520451894 386.9477308141799 279.22401051811454L385.27651928320995 285.4834573432022L385.2461336190105 285.6353856641995Q385.2461336190105 285.87847097779513 385.3980619400078 286.0303992987924Q385.549990261005 286.18232761978965 385.8234612388001 286.18232761978965Z"/>
    </g>
  </g>
</svg>