<svg xmlns="http://www.w3.org/2000/svg" viewBox="0 0 407.67 419.76">
  <svg x="54.6" y="0" width="248.8" height="287.8" viewBox="0 0 380.44 440.07">
  <!-- Generator: Adobe Illustrator 30.6.0, SVG Export Plug-In . SVG Version: 2.1.4 Build 109)  -->
  <defs>
    <style>
      .st0 {
        fill: #fff;
      }

      .st1 {
        fill: #28b56a;
      }
    </style>
  </defs>
  <path class="st1" d="M50.95,309.74l-15.5,34.2,24.51-24.06-9.01-10.15h0Z"/>
  <path class="st1" d="M160.52,78.27c-78.15,0-141.73,63.59-141.73,141.74,0,38.94,15.79,74.26,41.3,99.91l45.61-45.38c-13.92-14-22.54-33.27-22.54-54.53,0-42.66,34.7-77.36,77.36-77.36s77.36,34.7,77.36,77.36-34.7,77.36-77.36,77.36c-17.41,0-33.49-5.78-46.43-15.52l-38.64,51.46c23.71,17.85,53.17,28.44,85.07,28.44h0c78.15,0,141.73-63.59,141.73-141.74s-63.58-141.73-141.73-141.73Z"/>
  <path class="st0" d="M322.79,71.51C243.46-15.29,110.59-23.91,21.16,50.24h0l-.04.03c-2.97,2.46-5.89,5.01-8.76,7.65L0,69.5l98.09,104.87,20.9-19.65L40.79,71.2c67.51-54.95,164.29-57.05,234.57-4.25,84.5,63.48,101.57,183.47,38.12,268-58.11,77.42-163.57,98.24-245.82,52.46l.07-.02,92.81-167.38-114.92,153.1s-.03-.02-.04-.03l-17.19,22.91s.02,0,.03.02l-.04.05.08-.02c84.6,63.49,202.39,57.77,280.44-13.63,89.66-82.01,95.88-221.21,13.89-310.9h0Z"/>
  <path class="st0" d="M160.52,142.65c-42.66,0-77.36,34.7-77.36,77.36,0,21.26,8.62,40.53,22.54,54.53l20.3-20.2c-8.76-8.81-14.19-20.95-14.19-34.33,0-26.86,21.85-48.71,48.71-48.71s48.71,21.85,48.71,48.71-21.85,48.71-48.71,48.71c-10.96,0-21.09-3.64-29.23-9.77l-17.2,22.9c12.94,9.74,29.02,15.52,46.43,15.52,42.66,0,77.36-34.7,77.36-77.36s-34.7-77.36-77.36-77.36Z"/>
</svg>
  <svg x="0" y="340" width="357.98" height="79.9" viewBox="0 0 471.36 105.15">
  <defs>
    <style>
      .cls-1 {
        fill: #03a04a;
      }

      .cls-2 {
        fill: #fff;
      }
    </style>
  </defs>
  <path class="cls-2" d="M15.02,84.88L15.02,73.99Q15.02,72.74 15.84,71.99Q16.65,71.23 17.78,71.23L27.92,71.23Q35.43,71.23 41.69,67.54Q47.95,63.85 51.64,57.59Q55.33,51.33 55.33,43.82Q55.33,36.30 51.64,30.04Q47.95,23.78 41.69,20.09Q35.43,16.40 27.92,16.40L17.78,16.40Q17.15,16.40 16.71,16.83Q16.27,17.27 16.27,17.90L16.27,25.54Q16.27,26.66 15.46,27.41Q14.65,28.16 13.52,28.16L2.63,28.16Q1.63,28.16 0.81,27.35Q0.00,26.54 0.00,25.54L0.00,2.87Q0.00,1.75 0.81,0.93Q1.63,0.12 2.63,0.12L27.92,0.12Q39.81,0.12 49.83,6.00Q59.84,11.89 65.73,21.90Q71.61,31.92 71.61,43.82Q71.61,55.71 65.73,65.73Q59.84,75.74 49.83,81.63Q39.81,87.51 27.92,87.51L17.78,87.51Q16.65,87.51 15.84,86.76Q15.02,86.01 15.02,84.88Z"/>
  <path class="cls-2" d="M100.15,83.44L100.15,18.28Q100.15,17.03 99.27,16.21Q98.40,15.40 97.14,15.40L90.01,15.40Q89.38,15.40 88.88,14.90Q88.38,14.40 88.38,13.65L88.38,2.00Q88.38,1.25 88.88,0.75Q89.38,0.25 90.01,0.25L144.72,0.25Q145.35,0.25 145.85,0.75Q146.35,1.25 146.35,2.00L146.35,13.65Q146.35,14.40 145.85,14.90Q145.35,15.40 144.72,15.40L121.31,15.40Q120.06,15.40 119.18,16.27Q118.30,17.15 118.30,18.28L118.30,85.88Q118.30,86.63 117.80,87.07Q117.30,87.51 116.68,87.51L104.22,87.51Q100.15,87.51 100.15,83.44Z"/>
  <path class="cls-2" d="M168.01,85.52L168.01,41.82Q168.01,40.82 168.70,40.13Q169.39,39.44 170.39,39.44L196.31,39.44Q201.32,39.44 204.76,36.06Q208.21,32.68 208.21,27.92Q208.21,23.04 204.76,19.66Q201.32,16.28 196.31,16.28L185.79,16.28Q184.42,16.28 183.48,17.22Q182.54,18.15 182.54,19.41L182.54,22.54Q182.54,23.79 181.66,24.73Q180.78,25.67 179.41,25.67L171.14,25.67Q169.89,25.67 168.95,24.73Q168.01,23.79 168.01,22.54L168.01,2.38Q168.01,1.38 168.70,0.69Q169.39,0.00 170.39,0.00L196.31,0.00Q204.08,0.00 210.59,3.76Q217.10,7.51 220.92,13.90Q224.74,20.28 224.74,27.92Q224.74,34.43 221.80,40.19Q218.85,45.95 213.72,49.83Q212.97,50.33 212.97,51.08Q212.97,51.84 213.09,52.34L227.62,84.77Q228.12,85.64 228.12,86.39Q228.12,87.77 226.37,87.77L216.10,87.77Q214.72,87.77 214.03,87.52Q213.34,87.27 212.84,86.27L199.82,56.97Q199.44,56.22 198.82,55.97Q198.19,55.72 196.31,55.72L185.67,55.72Q184.16,55.72 183.35,56.16Q182.54,56.59 182.54,57.97L182.54,85.52Q182.54,86.52 181.85,87.14Q181.16,87.77 180.16,87.77L170.39,87.77Q169.39,87.77 168.70,87.14Q168.01,86.52 168.01,85.52Z"/>
  <path class="cls-1" d="M246.76,13.14L246.76,2.37Q246.76,1.37 247.45,0.75Q248.14,0.12 249.01,0.12L307.12,0.12Q308.12,0.12 308.81,0.81Q309.49,1.50 309.49,2.37L309.49,13.14Q309.49,14.02 308.81,14.77Q308.12,15.52 307.12,15.52L249.01,15.52Q248.14,15.52 247.45,14.83Q246.76,14.15 246.76,13.14ZM246.76,85.53L246.76,27.67Q246.76,26.67 247.45,26.04Q248.14,25.42 249.01,25.42L259.66,25.42Q260.66,25.42 261.29,26.04Q261.91,26.67 261.91,27.67L261.91,33.94Q261.91,39.07 268.93,39.07L296.72,39.07Q297.60,39.07 298.23,39.63Q298.85,40.19 298.85,41.07L298.85,51.84Q298.85,52.72 298.23,53.28Q297.60,53.84 296.72,53.84L269.11,53.84Q261.91,53.84 261.91,60.42L261.91,70.12Q261.91,71.00 262.66,71.75Q263.41,72.50 264.29,72.50L307.37,72.50Q308.37,72.50 308.99,73.13Q309.62,73.75 309.62,74.76L309.62,85.53Q309.62,86.40 308.99,87.09Q308.37,87.78 307.37,87.78L249.01,87.78Q248.14,87.78 247.45,87.09Q246.76,86.40 246.76,85.53Z"/>
  <path class="cls-1" d="M392.43,32.16l-24.02,26.23,27.05,29.37h-18.41l-17.8-19.39-17.8,19.39h-18.47l27-29.47-23.92-26.13h18.31l14.76,16.1,14.86-16.1h18.41Z"/>
  <path class="cls-1" d="M471.36,68.99c0,2.3-.29,4.36-.87,6.2-.58,1.83-1.36,3.45-2.31,4.83-.96,1.39-2.08,2.57-3.34,3.55-1.27.98-2.6,1.77-3.99,2.39s-2.79,1.07-4.19,1.36c-1.41.29-2.74.44-4.01.44h-24.12v-13.37h24.12c1.78,0,3.12-.46,4.01-1.39.89-.93,1.34-2.26,1.34-4.01v-18c0-1.85-.46-3.22-1.36-4.11-.91-.89-2.24-1.34-3.99-1.34h-24.02c-1.82,0-3.19.46-4.11,1.36-.93.91-1.39,2.24-1.39,3.99v54.26h-13.37v-54.26c0-2.3.29-4.35.87-6.17.58-1.82,1.36-3.42,2.34-4.81s2.1-2.57,3.37-3.55c1.27-.98,2.6-1.77,3.99-2.39s2.79-1.07,4.22-1.36c1.42-.29,2.75-.44,3.99-.44h24.12c2.3,0,4.35.29,6.17.87,1.82.58,3.42,1.36,4.81,2.31,1.39.96,2.57,2.08,3.55,3.34.98,1.27,1.77,2.6,2.39,3.99s1.07,2.79,1.36,4.19c.29,1.41.44,2.74.44,4.01v18.11Z"/>
</svg>
  <g id="badge">
    <rect x="308.28" y="233.50" width="99.39" height="99.39" rx="49.69" ry="49.69" fill="#b07219"/>
    <g>
      <path fill="#ffffff" d="M319.06615699259834 290.5787164004675Q318.975 290.4267880794702 318.975 290.24447409427347Q318.975 290.0925457732762 319.05096416049867 289.92542462017923Q319.12692832099725 289.7583034670822 319.2484709777951 289.6975321386833Q319.6738702765875 289.45444682508764 320.38793338527466 289.08981885469416Q321.10199649396185 288.72519088430073 321.5273957927542 288.5124912349046Q321.6793241137515 288.4213342423062 321.83125243474876 288.4213342423062Q322.1351090767433 288.4213342423062 322.4693513829373 288.7555765485002Q322.8643650175302 289.30251850409036 323.5784281262174 289.6367608102844Q324.29249123490456 289.97100311647836 324.991361511492 289.97100311647836Q326.17640241527073 289.97100311647836 326.95123685235683 289.18097584729253Q327.7260712894429 288.39094857810676 327.7260712894429 287.17552201012853V276.11514024152706H321.314696143358Q321.0108395013635 276.11514024152706 320.7981398519673 275.8872477600312Q320.5854402025711 275.65935527853526 320.5854402025711 275.3554986365407V273.22850214257886Q320.5854402025711 272.92464550058435 320.7981398519673 272.6967530190884Q321.0108395013635 272.46886053759255 321.314696143358 272.46886053759255H331.2811940007791Q331.5242793143748 272.46886053759255 331.67620763537207 272.6207888585898Q331.8281359563693 272.77271717958706 331.8281359563693 273.0158024931827V287.17552201012853Q331.8281359563693 289.60637514608493 330.506359563693 291.32316517335414Q329.18458317101675 293.0399552006233 327.2095149980522 293.6476684846124Q326.2067880794702 293.95152512660695 324.991361511492 293.95152512660695Q323.2289929879236 293.9211394624075 321.5881671211531 292.948798208025Q319.94734125438254 291.9764569536424 319.06615699259834 290.5787164004675Z"/>
      <path fill="#ffffff" d="M336.38598558628746 293.3741975068173 341.76424814959097 272.92464550058435Q341.8250194779898 272.7423315153876 341.99214063108684 272.60559602649005Q342.15926178418385 272.46886053759255 342.37196143358005 272.46886053759255H348.6921795870666Q348.8744935722633 272.46886053759255 349.05680755746005 272.5904031943903Q349.2391215426568 272.71194585118815 349.2998928710557 272.8942598363849L354.67815543435916 293.34381184261787V293.4349688352162Q354.67815543435916 293.7692111414102 354.3742987923646 293.7692111414102H351.3965037008181Q351.21418971562133 293.7692111414102 351.0166828983249 293.63247565251265Q350.81917608102844 293.4957401636151 350.788790416829 293.3134261784184L349.2998928710557 287.66169263731985Q349.2391215426568 287.38822165952473 348.99603622906113 287.20590767432805Q348.75295091546553 287.0235936891313 348.4794799376704 287.0235936891313H342.5846610829762Q342.31119010518114 287.0235936891313 342.0681047915855 287.20590767432805Q341.8250194779898 287.38822165952473 341.76424814959097 287.66169263731985L340.2753506038177 293.28304051421895Q340.2449649396182 293.4957401636151 340.04745812232176 293.63247565251265Q339.8499513050253 293.7692111414102 339.6676373198286 293.7692111414102H336.68984222828203Q336.53791390728475 293.7692111414102 336.4467569146864 293.6476684846124Q336.355599922088 293.52612582781455 336.38598558628746 293.3741975068173ZM347.5375243474873 283.7723276197896Q347.8413809894819 283.7723276197896 348.0085021425789 283.5596279703934Q348.17562329567585 283.3469283209973 348.11485196727693 283.07345734320216L346.4132547721075 276.8140105181145Q346.38286910790805 276.5709252045189 346.1397837943124 276.3886112193222Q345.8966984807168 276.20629723412543 345.6232275029217 276.20629723412543H345.44091351772494Q345.1674425399299 276.20629723412543 344.9243572263342 276.3886112193222Q344.68127191273857 276.5709252045189 344.6508862485391 276.8140105181145L342.97967471756914 283.07345734320216L342.9492890533697 283.22538566419945Q342.9492890533697 283.4684709777951 343.1012173743669 283.62039929879234Q343.2531456953642 283.7723276197896 343.5266166731593 283.7723276197896Z"/>
      <path fill="#ffffff" d="M374.79346513439816 272.86387417218543Q374.79346513439816 273.0158024931827 374.7630794701987 273.1069594857811L369.23288858589797 293.34381184261787Q369.17211725749905 293.58689715621347 369.02018893650177 293.6628613167121Q368.8682606155045 293.73882547721075 368.56440397350997 293.73882547721075H364.82696727697703Q364.5231106349825 293.73882547721075 364.3559894818855 293.6628613167121Q364.1888683287885 293.58689715621347 364.1280970003896 293.34381184261787L358.6282917802883 273.1069594857811Q358.59790611608884 273.0158024931827 358.59790611608884 272.833488507986Q358.59790611608884 272.4384748733931 358.9929197506818 272.4384748733931H361.75801519283215Q362.0922574990261 272.4384748733931 362.25937865212313 272.5144390338917Q362.42649980522015 272.5904031943903 362.487271133619 272.833488507986Q363.0645987534087 274.99087066614726 364.4015679781847 279.88296260225945Q365.7385372029607 284.77505453837165 366.43740747954814 287.44899298792365Q366.5893358005454 287.9959349435138 366.68049279314374 287.9959349435138Q366.80203544994157 287.9959349435138 366.9235781067394 287.44899298792365Q367.62244838332686 284.77505453837165 368.95941760810285 279.88296260225945Q370.29638683287885 274.99087066614726 370.8737144526685 272.833488507986Q370.96487144526685 272.5904031943903 371.13199259836387 272.5144390338917Q371.2991137514609 272.4384748733931 371.6029703934554 272.4384748733931H374.3984514998052Q374.79346513439816 272.4384748733931 374.79346513439816 272.86387417218543Z"/>
      <path fill="#ffffff" d="M378.6828301519283 293.3741975068173 384.0610927152318 272.92464550058435Q384.12186404363064 272.7423315153876 384.28898519672765 272.60559602649005Q384.45610634982467 272.46886053759255 384.66880599922087 272.46886053759255H390.98902415270743Q391.1713381379041 272.46886053759255 391.35365212310086 272.5904031943903Q391.5359661082976 272.71194585118815 391.5967374366965 272.8942598363849L396.97499999999997 293.34381184261787V293.4349688352162Q396.97499999999997 293.7692111414102 396.6711433580054 293.7692111414102H393.6933482664589Q393.51103428126214 293.7692111414102 393.31352746396567 293.63247565251265Q393.11602064666926 293.4957401636151 393.0856349824698 293.3134261784184L391.5967374366965 287.66169263731985Q391.5359661082976 287.38822165952473 391.292880794702 287.20590767432805Q391.04979548110634 287.0235936891313 390.77632450331123 287.0235936891313H384.881505648617Q384.60803467082195 287.0235936891313 384.3649493572263 287.20590767432805Q384.12186404363064 287.38822165952473 384.0610927152318 287.66169263731985L382.5721951694585 293.28304051421895Q382.54180950525904 293.4957401636151 382.34430268796257 293.63247565251265Q382.1467958706661 293.7692111414102 381.9644818854694 293.7692111414102H378.98668679392284Q378.83475847292556 293.7692111414102 378.7436014803272 293.6476684846124Q378.6524444877288 293.52612582781455 378.6828301519283 293.3741975068173ZM389.8343689131281 283.7723276197896Q390.1382255551227 283.7723276197896 390.30534670821964 283.5596279703934Q390.47246786131666 283.3469283209973 390.41169653291774 283.07345734320216L388.7100993377483 276.8140105181145Q388.67971367354886 276.5709252045189 388.43662835995326 276.3886112193222Q388.1935430463576 276.20629723412543 387.9200720685625 276.20629723412543H387.73775808336575Q387.4642871055707 276.20629723412543 387.22120179197503 276.3886112193222Q386.9781164783794 276.5709252045189 386.9477308141799 276.8140105181145L385.27651928320995 283.07345734320216L385.2461336190105 283.22538566419945Q385.2461336190105 283.4684709777951 385.3980619400078 283.62039929879234Q385.549990261005 283.7723276197896 385.8234612388001 283.7723276197896Z"/>
    </g>
  </g>
</svg>